REM DIRINDEX 1\2\5,1\2\6,1\2\7,1\2\8,1\3\9,1\3\10,1\3\11,1\4\12,1\4\13,1\4\14,1\4\15,1\4\16
REM DIRNAME folder01,folder02,folder03,folder04,folder05,folder06,folder07,folder08,folder09,folder10,folder11,folder12,folder13,folder14,folder15,folder16
TITLE ""
FILE "1200_sec01_0153_0160.mp3" MP3
  TRACK 01 AUDIO
    TITLE "0:"
    INDEX 01 00:00:00
  TRACK 02 AUDIO
    TITLE "12:cjc034_04239"
    INDEX 01 00:00:17
  TRACK 03 AUDIO
    TITLE "0:"
    INDEX 01 00:01:24
  TRACK 04 AUDIO
    TITLE "13:cjc034_04240"
    INDEX 01 00:01:58
  TRACK 05 AUDIO
    TITLE "0:"
    INDEX 01 00:05:05
  TRACK 06 AUDIO
    TITLE "14:cjc034_04241"
    INDEX 01 00:05:38
  TRACK 07 AUDIO
    TITLE "0:"
    INDEX 01 00:06:45
  TRACK 08 AUDIO
    TITLE "15:cjc034_04242"
    INDEX 01 00:07:02
  TRACK 09 AUDIO
    TITLE "0:"
    INDEX 01 00:10:31
  TRACK 10 AUDIO
    TITLE "12:cjc034_04243"
    INDEX 01 00:11:60
  TRACK 11 AUDIO
    TITLE "0:"
    INDEX 01 00:12:71
  TRACK 12 AUDIO
    TITLE "13:cjc034_04244"
    INDEX 01 00:13:32
  TRACK 13 AUDIO
    TITLE "0:"
    INDEX 01 00:14:43
  TRACK 14 AUDIO
    TITLE "14:cjc034_04245"
    INDEX 01 00:15:01
  TRACK 15 AUDIO
    TITLE "0:"
    INDEX 01 00:16:12
  TRACK 16 AUDIO
    TITLE "15:cjc034_04246"
    INDEX 01 00:16:46
  TRACK 17 AUDIO
    TITLE "0:"
    INDEX 01 00:21:27
  TRACK 18 AUDIO
    TITLE "12:cjc034_04247"
    INDEX 01 00:22:58
  TRACK 19 AUDIO
    TITLE "0:"
    INDEX 01 00:23:69
  TRACK 20 AUDIO
    TITLE "13:cjc034_04248"
    INDEX 01 00:24:29
  TRACK 21 AUDIO
    TITLE "0:"
    INDEX 01 00:26:28
  TRACK 22 AUDIO
    TITLE "14:cjc034_04249"
    INDEX 01 00:26:62
  TRACK 23 AUDIO
    TITLE "0:"
    INDEX 01 00:28:00
  TRACK 24 AUDIO
    TITLE "15:cjc034_04250"
    INDEX 01 00:28:33
  TRACK 25 AUDIO
    TITLE "0:"
    INDEX 01 00:31:14
  TRACK 26 AUDIO
    TITLE "12:cjc034_04251"
    INDEX 01 00:32:45
  TRACK 27 AUDIO
    TITLE "0:"
    INDEX 01 00:33:54
  TRACK 28 AUDIO
    TITLE "13:cjc034_04252"
    INDEX 01 00:34:12
  TRACK 29 AUDIO
    TITLE "0:"
    INDEX 01 00:36:52
  TRACK 30 AUDIO
    TITLE "14:cjc034_04253"
    INDEX 01 00:37:08
  TRACK 31 AUDIO
    TITLE "0:"
    INDEX 01 00:38:18
  TRACK 32 AUDIO
    TITLE "15:cjc034_04254"
    INDEX 01 00:38:49
  TRACK 33 AUDIO
    TITLE "0:"
    INDEX 01 00:42:53
  TRACK 34 AUDIO
    TITLE "12:cjc034_04255"
    INDEX 01 00:44:11
  TRACK 35 AUDIO
    TITLE "0:"
    INDEX 01 00:45:26
  TRACK 36 AUDIO
    TITLE "13:cjc034_04256"
    INDEX 01 00:45:59
  TRACK 37 AUDIO
    TITLE "0:"
    INDEX 01 00:47:50
  TRACK 38 AUDIO
    TITLE "14:cjc034_04257"
    INDEX 01 00:48:06
  TRACK 39 AUDIO
    TITLE "0:"
    INDEX 01 00:49:18
  TRACK 40 AUDIO
    TITLE "15:cjc034_04258"
    INDEX 01 00:49:53
  TRACK 41 AUDIO
    TITLE "0:"
    INDEX 01 00:53:74
  TRACK 42 AUDIO
    TITLE "12:cjc034_04259"
    INDEX 01 00:55:32
  TRACK 43 AUDIO
    TITLE "0:"
    INDEX 01 00:56:43
  TRACK 44 AUDIO
    TITLE "13:cjc034_04260"
    INDEX 01 00:57:01
  TRACK 45 AUDIO
    TITLE "0:"
    INDEX 01 01:00:37
  TRACK 46 AUDIO
    TITLE "14:cjc034_04261"
    INDEX 01 01:00:72
  TRACK 47 AUDIO
    TITLE "0:"
    INDEX 01 01:02:08
  TRACK 48 AUDIO
    TITLE "15:cjc034_04262"
    INDEX 01 01:02:40
  TRACK 49 AUDIO
    TITLE "0:"
    INDEX 01 01:06:12
  TRACK 50 AUDIO
    TITLE "12:cjc034_04263"
    INDEX 01 01:07:47
  TRACK 51 AUDIO
    TITLE "0:"
    INDEX 01 01:09:09
  TRACK 52 AUDIO
    TITLE "13:cjc034_04264"
    INDEX 01 01:09:44
  TRACK 53 AUDIO
    TITLE "0:"
    INDEX 01 01:10:67
  TRACK 54 AUDIO
    TITLE "14:cjc034_04265"
    INDEX 01 01:11:25
  TRACK 55 AUDIO
    TITLE "0:"
    INDEX 01 01:12:64
  TRACK 56 AUDIO
    TITLE "15:cjc034_04266"
    INDEX 01 01:13:22
  TRACK 57 AUDIO
    TITLE "0:"
    INDEX 01 01:16:07
  TRACK 58 AUDIO
    TITLE "12:cjc034_04267"
    INDEX 01 01:17:45
  TRACK 59 AUDIO
    TITLE "0:"
    INDEX 01 01:18:53
  TRACK 60 AUDIO
    TITLE "13:cjc034_04268"
    INDEX 01 01:19:09
  TRACK 61 AUDIO
    TITLE "0:"
    INDEX 01 01:21:39
  TRACK 62 AUDIO
    TITLE "14:cjc034_04269"
    INDEX 01 01:21:74
  TRACK 63 AUDIO
    TITLE "0:"
    INDEX 01 01:23:07
  TRACK 64 AUDIO
    TITLE "15:cjc034_04270"
    INDEX 01 01:23:36
  TRACK 65 AUDIO
    TITLE "0:"
    INDEX 01 01:26:72
